<svg class="ProductIcon ProductIcon--Banking " viewBox="0 0 40 40" xmlns="http://www.w3.org/2000/svg"><title>Treasury logo</title><path d="M29 14.5c0-.36-.07-.71-.22-1.04l-3.92-8.94A2.52 2.52 0 0 0 22.56 3H2.52A2.54 2.54 0 0 0 0 5.56v17.88A2.54 2.54 0 0 0 2.52 26h20.04c1 0 1.9-.6 2.3-1.52l3.92-8.94c.15-.33.22-.68.22-1.04z" fill="url(#product-icon-banking-SiteMenu-a)"/><path d="M11 25.5c0 .36.07.71.22 1.04l3.92 8.94c.4.93 1.3 1.52 2.3 1.52h20.04c1.4 0 2.52-1.14 2.52-2.56V16.56A2.54 2.54 0 0 0 37.48 14H17.44c-1 0-1.9.6-2.3 1.52l-3.92 8.94c-.15.33-.22.68-.22 1.04z" fill="#00D924"/><path d="M28.95 14a2.59 2.59 0 0 1-.17 1.54l-3.92 8.94c-.4.93-1.3 1.52-2.3 1.52H11.05a2.59 2.59 0 0 1 .17-1.54l3.92-8.94c.4-.93 1.3-1.52 2.3-1.52h11.51z" fill="url(#product-icon-banking-SiteMenu-b)"/><defs><linearGradient id="product-icon-banking-SiteMenu-a" x1="14.5" y1="6.13" x2="14.5" y2="28.22" gradientUnits="userSpaceOnUse"><stop stop-color="#11EFE3"/><stop offset=".35" stop-color="#14E8E2"/><stop offset=".86" stop-color="#1ED6E1"/><stop offset="1" stop-color="#21CFE0"/></linearGradient><linearGradient id="product-icon-banking-SiteMenu-b" x1="25.31" y1="29.5" x2="25.31" y2="9" gradientUnits="userSpaceOnUse"><stop stop-color="#00D924"/><stop offset="1" stop-color="#00A600"/></linearGradient></defs></svg>